<svg width="782" height="757" viewBox="0 0 782 757" fill="none" xmlns="http://www.w3.org/2000/svg">
<g opacity="0.5">
<path opacity="0.5" d="M116.72 237.98C180.724 237.98 232.61 186.094 232.61 122.09C232.61 58.0857 180.724 6.20001 116.72 6.20001C52.7157 6.20001 0.829987 58.0857 0.829987 122.09C0.829987 186.094 52.7157 237.98 116.72 237.98Z" fill="url(#paint0_linear)"/>
</g>
<path d="M116.72 234.9C179.371 234.9 230.16 184.111 230.16 121.46C230.16 58.8088 179.371 8.01999 116.72 8.01999C54.0688 8.01999 3.28 58.8088 3.28 121.46C3.28 184.111 54.0688 234.9 116.72 234.9Z" fill="white"/>
<path d="M117.04 235.22C139.208 235.256 160.896 228.767 179.4 216.56C175.22 193.72 159.31 192.41 159.31 192.41H71.6C71.6 192.41 56.6 193.64 51.9 214.66C70.9701 228.074 93.7248 235.256 117.04 235.22Z" fill="#6F4E37"/>
<path d="M115.85 169.25C143.624 169.25 166.14 146.734 166.14 118.96C166.14 91.1856 143.624 68.67 115.85 68.67C88.0756 68.67 65.56 91.1856 65.56 118.96C65.56 146.734 88.0756 169.25 115.85 169.25Z" fill="#333333"/>
<path opacity="0.1" d="M98.18 164.57H133.27V192.64C133.27 197.292 131.422 201.753 128.133 205.043C124.843 208.332 120.382 210.18 115.73 210.18C111.078 210.18 106.617 208.332 103.327 205.043C100.038 201.753 98.19 197.292 98.19 192.64V164.57H98.18Z" fill="black"/>
<path d="M101.53 163.27H129.92C130.808 163.27 131.661 163.623 132.289 164.251C132.917 164.879 133.27 165.732 133.27 166.62V191.34C133.27 195.992 131.422 200.453 128.133 203.743C124.843 207.032 120.382 208.88 115.73 208.88C111.078 208.88 106.617 207.032 103.327 203.743C100.038 200.453 98.19 195.992 98.19 191.34V166.62C98.19 165.733 98.5416 164.883 99.1677 164.255C99.7937 163.627 100.643 163.273 101.53 163.27Z" fill="#BE7C5E"/>
<path opacity="0.1" d="M98.25 177.82C109.559 182.047 122.007 182.082 133.34 177.92V173.61H98.25V177.82Z" fill="black"/>
<path d="M115.85 180.17C143.624 180.17 166.14 157.654 166.14 129.88C166.14 102.106 143.624 79.59 115.85 79.59C88.0756 79.59 65.56 102.106 65.56 129.88C65.56 157.654 88.0756 180.17 115.85 180.17Z" fill="#BE7C5E"/>
<path d="M85.38 109.14C85.97 106.97 86.71 104.58 88.66 103.45C90.2 102.55 92.11 102.69 93.89 102.78C107.79 103.54 121.57 100.37 135.09 97.06C142.82 95.17 151.09 92.87 156.09 86.64C161.09 80.41 154.57 60.83 146.96 58.52C141.96 56.99 136.16 59.84 131.42 57.6C129.31 56.6 127.76 54.73 125.94 53.27C122.21 50.27 117.42 49.06 112.78 47.92C107.36 46.58 101.5 45.27 96.35 47.42C92.35 49.08 89.43 52.59 85.64 54.67C78.43 58.67 69.64 56.81 61.38 56.79C58.59 56.79 55.26 57.35 54.15 59.91C53.4 61.65 54 63.63 54.08 65.52C54.32 71.52 49.37 76.19 45.22 80.52C41.07 84.85 37.15 91.03 39.77 96.41C40.77 98.46 42.6 100.01 43.64 102.04C45.43 105.56 44.53 109.81 45.18 113.7C45.8308 116.652 46.9339 119.485 48.45 122.1C51.53 128.1 67 160.4 74.11 152.19C77.55 148.19 78.11 136.63 79.5 131.43C81.42 123.957 83.38 116.527 85.38 109.14Z" fill="#333333"/>
<path d="M80.07 136.82C82.6547 136.82 84.75 132.894 84.75 128.05C84.75 123.206 82.6547 119.28 80.07 119.28C77.4853 119.28 75.39 123.206 75.39 128.05C75.39 132.894 77.4853 136.82 80.07 136.82Z" fill="#BE7C5E"/>
<g opacity="0.5">
<path opacity="0.5" d="M385.08 490.21C449.084 490.21 500.97 438.324 500.97 374.32C500.97 310.316 449.084 258.43 385.08 258.43C321.076 258.43 269.19 310.316 269.19 374.32C269.19 438.324 321.076 490.21 385.08 490.21Z" fill="url(#paint1_linear)"/>
</g>
<path d="M385.3 487.02C447.951 487.02 498.74 436.231 498.74 373.58C498.74 310.929 447.951 260.14 385.3 260.14C322.649 260.14 271.86 310.929 271.86 373.58C271.86 436.231 322.649 487.02 385.3 487.02Z" fill="white"/>
<path d="M385.4 487.47C407.554 487.499 429.227 481.009 447.72 468.81C443.54 445.97 427.63 444.66 427.63 444.66H339.95C339.95 444.66 324.95 445.89 320.25 466.91C339.323 480.326 362.081 487.508 385.4 487.47Z" fill="#6F4E37"/>
<path d="M384.2 425.95C414.443 425.95 438.96 401.433 438.96 371.19C438.96 340.947 414.443 316.43 384.2 316.43C353.957 316.43 329.44 340.947 329.44 371.19C329.44 401.433 353.957 425.95 384.2 425.95Z" fill="#F55F44"/>
<path opacity="0.1" d="M366.53 416.8H401.62V444.87C401.62 449.522 399.772 453.983 396.483 457.273C393.193 460.562 388.732 462.41 384.08 462.41C379.428 462.41 374.967 460.562 371.677 457.273C368.388 453.983 366.54 449.522 366.54 444.87V416.8H366.53Z" fill="black"/>
<path d="M369.88 415.5H398.27C398.71 415.5 399.146 415.587 399.552 415.755C399.958 415.923 400.328 416.17 400.639 416.481C400.95 416.792 401.197 417.162 401.365 417.568C401.533 417.974 401.62 418.41 401.62 418.85V443.57C401.62 445.873 401.166 448.154 400.285 450.282C399.403 452.41 398.111 454.344 396.483 455.973C394.854 457.601 392.92 458.893 390.792 459.775C388.664 460.656 386.383 461.11 384.08 461.11C381.777 461.11 379.496 460.656 377.368 459.775C375.24 458.893 373.306 457.601 371.677 455.973C370.049 454.344 368.757 452.41 367.875 450.282C366.994 448.154 366.54 445.873 366.54 443.57V418.85C366.54 417.962 366.893 417.109 367.521 416.481C368.149 415.853 369.002 415.5 369.89 415.5H369.88Z" fill="#FDA57D"/>
<path opacity="0.1" d="M366.6 430.05C377.909 434.277 390.357 434.312 401.69 430.15V425.84H366.6V430.05Z" fill="black"/>
<path d="M384.2 432.4C411.974 432.4 434.49 409.884 434.49 382.11C434.49 354.336 411.974 331.82 384.2 331.82C356.426 331.82 333.91 354.336 333.91 382.11C333.91 409.884 356.426 432.4 384.2 432.4Z" fill="#FDA57D"/>
<path d="M384.13 335.73C395.308 335.73 404.37 326.668 404.37 315.49C404.37 304.312 395.308 295.25 384.13 295.25C372.952 295.25 363.89 304.312 363.89 315.49C363.89 326.668 372.952 335.73 384.13 335.73Z" fill="#F55F44"/>
<path d="M384.13 308.85C391.47 308.85 397.42 302.9 397.42 295.56C397.42 288.22 391.47 282.27 384.13 282.27C376.79 282.27 370.84 288.22 370.84 295.56C370.84 302.9 376.79 308.85 384.13 308.85Z" fill="#F55F44"/>
<path d="M375.35 326.59C370.601 324.46 366.856 320.583 364.891 315.763C362.927 310.944 362.894 305.553 364.8 300.71C364.66 300.99 364.52 301.28 364.39 301.57C363.302 303.996 362.702 306.612 362.625 309.269C362.548 311.926 362.996 314.572 363.941 317.057C364.887 319.541 366.313 321.815 368.137 323.749C369.962 325.682 372.149 327.237 374.575 328.325C377.001 329.413 379.617 330.013 382.274 330.09C384.931 330.167 387.577 329.719 390.062 328.774C392.546 327.828 394.82 326.402 396.754 324.578C398.687 322.753 400.242 320.566 401.33 318.14C401.46 317.85 401.58 317.56 401.7 317.26C399.35 321.905 395.301 325.467 390.394 327.204C385.487 328.942 380.099 328.722 375.35 326.59Z" fill="#F55F44"/>
<path opacity="0.1" d="M348.39 336.37C348.39 336.37 369.58 379.37 429.39 354.37L415.47 332.54L390.8 323.68L348.39 336.37Z" fill="black"/>
<path d="M348.39 335.73C348.39 335.73 369.58 378.73 429.39 353.73L415.47 331.9L390.8 323.04L348.39 335.73Z" fill="#F55F44"/>
<path d="M364.72 320.07C377.76 319.044 390.86 319.044 403.9 320.07C403.9 320.07 374.96 322.76 364.72 320.07Z" fill="#333333"/>
<path d="M387.17 281.46C386.165 281.423 385.158 281.5 384.17 281.69H384.94C388.213 281.795 391.332 283.105 393.698 285.369C396.063 287.634 397.509 290.692 397.757 293.957C398.005 297.223 397.038 300.464 395.042 303.06C393.045 305.656 390.16 307.422 386.94 308.02C390.462 308.052 393.853 306.683 396.366 304.215C398.878 301.747 400.308 298.382 400.34 294.86C400.372 291.338 399.003 287.947 396.535 285.434C394.067 282.922 390.702 281.492 387.18 281.46H387.17Z" fill="#F55F44"/>
<path d="M333.9 390.83C336.485 390.83 338.58 386.904 338.58 382.06C338.58 377.216 336.485 373.29 333.9 373.29C331.315 373.29 329.22 377.216 329.22 382.06C329.22 386.904 331.315 390.83 333.9 390.83Z" fill="#FDA57D"/>
<path d="M434.49 390.83C437.075 390.83 439.17 386.904 439.17 382.06C439.17 377.216 437.075 373.29 434.49 373.29C431.905 373.29 429.81 377.216 429.81 382.06C429.81 386.904 431.905 390.83 434.49 390.83Z" fill="#FDA57D"/>
<path d="M345.22 337L355.03 331.94L357.24 340.05L351.23 344.14L345.22 337Z" fill="#F55F44"/>
<g opacity="0.5">
<path opacity="0.5" d="M384.97 232.29C448.974 232.29 500.86 180.404 500.86 116.4C500.86 52.3957 448.974 0.51001 384.97 0.51001C320.966 0.51001 269.08 52.3957 269.08 116.4C269.08 180.404 320.966 232.29 384.97 232.29Z" fill="url(#paint2_linear)"/>
</g>
<path d="M384.97 229.21C447.621 229.21 498.41 178.421 498.41 115.77C498.41 53.1188 447.621 2.32999 384.97 2.32999C322.319 2.32999 271.53 53.1188 271.53 115.77C271.53 178.421 322.319 229.21 384.97 229.21Z" fill="white"/>
<path d="M340.72 116.78C340.72 116.78 327.86 180.14 320.84 176.63C320.84 176.63 388.54 235.11 448.32 176.63C448.32 176.63 437.79 131.98 422.59 116.78H340.72Z" fill="#333333"/>
<path d="M385.29 229.55C407.458 229.586 429.146 223.097 447.65 210.89C443.47 188.05 427.56 186.74 427.56 186.74H339.84C339.84 186.74 324.84 187.97 320.14 208.99C339.213 222.406 361.971 229.588 385.29 229.55Z" fill="#6F4E37"/>
<path d="M384.09 163.56C411.864 163.56 434.38 141.044 434.38 113.27C434.38 85.4956 411.864 62.98 384.09 62.98C356.316 62.98 333.8 85.4956 333.8 113.27C333.8 141.044 356.316 163.56 384.09 163.56Z" fill="#333333"/>
<path opacity="0.1" d="M366.42 158.88H401.51V186.95C401.51 191.597 399.666 196.054 396.383 199.342C393.1 202.631 388.647 204.482 384 204.49C379.348 204.49 374.887 202.642 371.597 199.353C368.308 196.063 366.46 191.602 366.46 186.95V158.88H366.42Z" fill="black"/>
<path d="M369.77 157.58H398.16C399.048 157.58 399.901 157.933 400.529 158.561C401.157 159.189 401.51 160.042 401.51 160.93V185.65C401.51 190.297 399.666 194.754 396.383 198.042C393.1 201.331 388.647 203.182 384 203.19C379.348 203.19 374.887 201.342 371.597 198.053C368.308 194.763 366.46 190.302 366.46 185.65V160.92C366.463 160.04 366.811 159.197 367.431 158.572C368.05 157.947 368.89 157.591 369.77 157.58Z" fill="#BE7C5E"/>
<path opacity="0.1" d="M366.49 172.13C377.799 176.357 390.247 176.392 401.58 172.23V167.92H366.49V172.13Z" fill="black"/>
<path d="M384.09 174.47C411.864 174.47 434.38 151.954 434.38 124.18C434.38 96.4056 411.864 73.89 384.09 73.89C356.316 73.89 333.8 96.4056 333.8 124.18C333.8 151.954 356.316 174.47 384.09 174.47Z" fill="#BE7C5E"/>
<path d="M336.02 105.08H431.92C431.92 105.08 423.73 66.36 387.48 68.83C351.23 71.3 336.02 105.08 336.02 105.08Z" fill="#333333"/>
<path d="M334.84 130.81C337.425 130.81 339.52 126.884 339.52 122.04C339.52 117.196 337.425 113.27 334.84 113.27C332.255 113.27 330.16 117.196 330.16 122.04C330.16 126.884 332.255 130.81 334.84 130.81Z" fill="#BE7C5E"/>
<path d="M433.08 130.81C435.665 130.81 437.76 126.884 437.76 122.04C437.76 117.196 435.665 113.27 433.08 113.27C430.495 113.27 428.4 117.196 428.4 122.04C428.4 126.884 430.495 130.81 433.08 130.81Z" fill="#BE7C5E"/>
<path opacity="0.1" d="M336.02 106.38H431.92C431.92 106.38 423.73 67.66 387.48 70.13C351.23 72.6 336.02 106.38 336.02 106.38Z" fill="black"/>
<g opacity="0.5">
<path opacity="0.5" d="M661.23 231.78C725.234 231.78 777.12 179.894 777.12 115.89C777.12 51.8857 725.234 0 661.23 0C597.226 0 545.34 51.8857 545.34 115.89C545.34 179.894 597.226 231.78 661.23 231.78Z" fill="url(#paint3_linear)"/>
</g>
<path d="M661.45 228.58C724.101 228.58 774.89 177.791 774.89 115.14C774.89 52.4888 724.101 1.70001 661.45 1.70001C598.799 1.70001 548.01 52.4888 548.01 115.14C548.01 177.791 598.799 228.58 661.45 228.58Z" fill="white"/>
<path d="M661.55 229.04C683.718 229.076 705.406 222.587 723.91 210.38C719.72 187.53 703.82 186.22 703.82 186.22H616.11C616.11 186.22 601.11 187.45 596.41 208.47C615.479 221.887 638.234 229.073 661.55 229.04Z" fill="#6F4E37"/>
<path d="M660.36 167.51C690.603 167.51 715.12 142.993 715.12 112.75C715.12 82.5069 690.603 57.99 660.36 57.99C630.117 57.99 605.6 82.5069 605.6 112.75C605.6 142.993 630.117 167.51 660.36 167.51Z" fill="#72351C"/>
<path opacity="0.1" d="M642.68 158.36H677.77V186.43C677.774 188.736 677.323 191.02 676.443 193.151C675.564 195.283 674.272 197.22 672.643 198.852C671.014 200.484 669.079 201.779 666.949 202.662C664.819 203.545 662.536 204 660.23 204C655.578 204 651.117 202.152 647.827 198.863C644.538 195.573 642.69 191.112 642.69 186.46V158.36H642.68Z" fill="black"/>
<path d="M646 157.06H674.39C675.278 157.06 676.131 157.413 676.759 158.041C677.387 158.669 677.74 159.522 677.74 160.41V185.13C677.74 189.782 675.892 194.243 672.603 197.533C669.313 200.822 664.852 202.67 660.2 202.67C655.548 202.67 651.087 200.822 647.797 197.533C644.508 194.243 642.66 189.782 642.66 185.13V160.41C642.66 159.522 643.013 158.669 643.641 158.041C644.269 157.413 645.122 157.06 646.01 157.06H646Z" fill="#FDA57D"/>
<path opacity="0.1" d="M642.72 171.61C654.029 175.837 666.477 175.872 677.81 171.71V167.4H642.72V171.61Z" fill="black"/>
<path d="M660.36 173.96C688.134 173.96 710.65 151.444 710.65 123.67C710.65 95.8956 688.134 73.38 660.36 73.38C632.586 73.38 610.07 95.8956 610.07 123.67C610.07 151.444 632.586 173.96 660.36 173.96Z" fill="#FDA57D"/>
<path opacity="0.1" d="M624.54 77.93C624.54 77.93 645.73 120.93 705.54 95.93L691.62 74.1L666.95 65.24L624.54 77.93Z" fill="black"/>
<path d="M624.54 77.3C624.54 77.3 645.73 120.3 705.54 95.3L691.62 73.47L666.95 64.61L624.54 77.3Z" fill="#72351C"/>
<path d="M624.35 74.39C625.779 69.9669 628.248 65.9511 631.55 62.68C641.44 52.9 657.66 50.84 665.98 39.68C666.432 40.4698 666.713 41.3456 666.806 42.251C666.899 43.1563 666.801 44.071 666.518 44.936C666.235 45.801 665.774 46.5972 665.165 47.273C664.556 47.9489 663.811 48.4895 662.98 48.86C670.98 48.81 680.19 48.11 684.69 41.55C685.804 44.1423 686.159 46.9973 685.715 49.7835C685.27 52.5697 684.045 55.1727 682.18 57.29C689.24 57.61 696.78 62.4 697.24 69.46C697.54 74.16 694.6 78.61 690.73 81.31C686.86 84.01 682.2 85.22 677.6 86.22C664.18 89.22 615.59 101.63 624.35 74.39Z" fill="#72351C"/>
<path d="M710.65 124.11H709.32L683.38 147.22C658.38 135.52 640.04 147.22 640.04 147.22L612.84 125.08L610.1 125.42C610.471 138.62 616.019 151.144 625.545 160.288C635.071 169.432 647.812 174.462 661.015 174.293C674.219 174.124 686.826 168.768 696.115 159.382C705.403 149.997 710.628 137.335 710.66 124.13L710.65 124.11ZM660.29 156.06C650.51 156.06 642.58 154.06 642.58 151.63C642.58 149.2 650.51 147.2 660.29 147.2C670.07 147.2 678 149.2 678 151.63C678 154.06 670.07 156.06 660.28 156.06H660.29Z" fill="#72351C"/>
<path d="M610.05 132.39C612.635 132.39 614.73 128.464 614.73 123.62C614.73 118.776 612.635 114.85 610.05 114.85C607.465 114.85 605.37 118.776 605.37 123.62C605.37 128.464 607.465 132.39 610.05 132.39Z" fill="#FDA57D"/>
<path d="M710.64 132.39C713.225 132.39 715.32 128.464 715.32 123.62C715.32 118.776 713.225 114.85 710.64 114.85C708.055 114.85 705.96 118.776 705.96 123.62C705.96 128.464 708.055 132.39 710.64 132.39Z" fill="#FDA57D"/>
<g opacity="0.5">
<path opacity="0.5" d="M115.89 482.62C179.894 482.62 231.78 430.734 231.78 366.73C231.78 302.726 179.894 250.84 115.89 250.84C51.8857 250.84 0 302.726 0 366.73C0 430.734 51.8857 482.62 115.89 482.62Z" fill="url(#paint4_linear)"/>
</g>
<path d="M116.11 479.43C178.761 479.43 229.55 428.641 229.55 365.99C229.55 303.339 178.761 252.55 116.11 252.55C53.4588 252.55 2.67001 303.339 2.67001 365.99C2.67001 428.641 53.4588 479.43 116.11 479.43Z" fill="white"/>
<path d="M116.21 479.88C138.374 479.914 160.059 473.425 178.56 461.22C174.38 438.38 158.47 437.07 158.47 437.07H70.72C70.72 437.07 55.72 438.3 51.02 459.32C70.104 472.744 92.8777 479.926 116.21 479.88Z" fill="#6F4E37"/>
<path d="M115.01 418.36C145.253 418.36 169.77 393.843 169.77 363.6C169.77 333.357 145.253 308.84 115.01 308.84C84.7669 308.84 60.25 333.357 60.25 363.6C60.25 393.843 84.7669 418.36 115.01 418.36Z" fill="#333333"/>
<path opacity="0.1" d="M97.34 409.21H132.43V437.28C132.43 441.932 130.582 446.393 127.293 449.683C124.003 452.972 119.542 454.82 114.89 454.82C110.238 454.82 105.777 452.972 102.487 449.683C99.198 446.393 97.35 441.932 97.35 437.28V409.21H97.34Z" fill="black"/>
<path d="M100.69 407.91H129.08C129.968 407.91 130.821 408.263 131.449 408.891C132.077 409.519 132.43 410.372 132.43 411.26V436C132.43 440.652 130.582 445.113 127.293 448.403C124.003 451.692 119.542 453.54 114.89 453.54C112.586 453.541 110.304 453.089 108.175 452.208C106.045 451.327 104.111 450.035 102.481 448.406C100.851 446.777 99.5582 444.843 98.6761 442.715C97.794 440.586 97.34 438.304 97.34 436V411.25C97.34 410.362 97.6929 409.509 98.3212 408.881C98.9494 408.253 99.8015 407.9 100.69 407.9V407.91Z" fill="#FDB797"/>
<path opacity="0.1" d="M97.41 422.46C108.719 426.687 121.167 426.722 132.5 422.56V418.22H97.41V422.46Z" fill="black"/>
<path d="M115.01 424.81C142.784 424.81 165.3 402.294 165.3 374.52C165.3 346.746 142.784 324.23 115.01 324.23C87.2356 324.23 64.72 346.746 64.72 374.52C64.72 402.294 87.2356 424.81 115.01 424.81Z" fill="#FDB797"/>
<path opacity="0.1" d="M79.2 328.77C79.2 328.77 100.39 371.77 160.2 346.77L146.28 324.94L121.61 316.08L79.2 328.77Z" fill="black"/>
<path d="M79.2 328.14C79.2 328.14 100.39 371.14 160.2 346.14L146.28 324.31L121.61 315.45L79.2 328.14Z" fill="#333333"/>
<path d="M79.01 325.22C80.4386 320.797 82.9077 316.781 86.21 313.51C96.1 303.73 112.32 301.67 120.64 290.51C121.092 291.3 121.373 292.176 121.466 293.081C121.559 293.986 121.461 294.901 121.178 295.766C120.895 296.631 120.434 297.427 119.825 298.103C119.216 298.779 118.471 299.32 117.64 299.69C125.64 299.64 134.85 298.94 139.35 292.38C140.464 294.972 140.819 297.827 140.375 300.614C139.93 303.4 138.705 306.003 136.84 308.12C143.9 308.44 151.44 313.23 151.9 320.29C152.2 324.99 149.26 329.44 145.39 332.14C141.52 334.84 136.85 336.07 132.25 337.09C118.83 340.07 70.25 352.48 79.01 325.22Z" fill="#333333"/>
<path d="M64.7 383.24C67.2847 383.24 69.38 379.314 69.38 374.47C69.38 369.626 67.2847 365.7 64.7 365.7C62.1153 365.7 60.02 369.626 60.02 374.47C60.02 379.314 62.1153 383.24 64.7 383.24Z" fill="#FDB797"/>
<path d="M165.29 383.24C167.875 383.24 169.97 379.314 169.97 374.47C169.97 369.626 167.875 365.7 165.29 365.7C162.705 365.7 160.61 369.626 160.61 374.47C160.61 379.314 162.705 383.24 165.29 383.24Z" fill="#FDB797"/>
<g opacity="0.5">
<path opacity="0.5" d="M664.89 491.78C728.894 491.78 780.78 439.894 780.78 375.89C780.78 311.886 728.894 260 664.89 260C600.886 260 549 311.886 549 375.89C549 439.894 600.886 491.78 664.89 491.78Z" fill="url(#paint5_linear)"/>
</g>
<path d="M665.12 488.59C727.771 488.59 778.56 437.801 778.56 375.15C778.56 312.499 727.771 261.71 665.12 261.71C602.469 261.71 551.68 312.499 551.68 375.15C551.68 437.801 602.469 488.59 665.12 488.59Z" fill="white"/>
<path d="M727.53 386.33C727.53 424.07 700.42 442.64 665.21 442.64C630 442.64 600.05 424.07 600.05 386.33C600.05 348.59 628.59 318 663.79 318C698.99 318 727.53 348.56 727.53 386.33Z" fill="#333333"/>
<path d="M665.21 489.04C687.381 489.078 709.073 482.589 727.58 470.38C723.4 447.54 707.49 446.23 707.49 446.23H619.77C619.77 446.23 604.77 447.46 600.07 468.48C619.14 481.894 641.895 489.076 665.21 489.04Z" fill="#6F4E37"/>
<path opacity="0.1" d="M646.35 418.34H681.44V446.41C681.444 448.719 680.992 451.007 680.11 453.141C679.227 455.275 677.932 457.214 676.299 458.846C674.666 460.479 672.726 461.773 670.591 462.654C668.457 463.534 666.169 463.985 663.86 463.98C659.208 463.98 654.747 462.132 651.457 458.843C648.168 455.553 646.32 451.092 646.32 446.44V418.34H646.35Z" fill="black"/>
<path d="M649.69 417.07H678.08C678.968 417.07 679.821 417.423 680.449 418.051C681.077 418.679 681.43 419.532 681.43 420.42V445.14C681.43 447.446 680.975 449.729 680.092 451.859C679.209 453.989 677.914 455.924 676.282 457.553C674.65 459.182 672.713 460.474 670.581 461.354C668.45 462.233 666.166 462.684 663.86 462.68C659.208 462.68 654.747 460.832 651.457 457.543C648.168 454.253 646.32 449.792 646.32 445.14V420.41C646.32 419.522 646.673 418.669 647.301 418.041C647.929 417.413 648.781 417.06 649.67 417.06L649.69 417.07Z" fill="#FDA57D"/>
<path opacity="0.1" d="M646.42 431.62C657.729 435.847 670.177 435.882 681.51 431.72V427.41H646.42V431.62Z" fill="black"/>
<path d="M664.02 433.96C691.794 433.96 714.31 411.444 714.31 383.67C714.31 355.896 691.794 333.38 664.02 333.38C636.246 333.38 613.73 355.896 613.73 383.67C613.73 411.444 636.246 433.96 664.02 433.96Z" fill="#FDA57D"/>
<path opacity="0.1" d="M606.06 386.96C606.06 386.96 637.38 383.16 661.06 352.8C661.06 352.8 692.38 387.28 714.2 383.48C714.2 383.48 726.85 370.19 714.2 356.91C701.55 343.63 691.74 326.86 674.98 329.07C658.22 331.28 637.65 332.23 628.8 340.14C619.95 348.05 606.06 386.96 606.06 386.96Z" fill="black"/>
<path d="M606.06 386.33C606.06 386.33 637.38 382.53 661.06 352.17C661.06 352.17 692.38 386.65 714.2 382.85C714.2 382.85 726.85 369.56 714.2 356.28C701.55 343 691.74 326.23 674.98 328.44C658.22 330.65 637.69 331.56 628.84 339.56C619.99 347.56 606.06 386.33 606.06 386.33Z" fill="#333333"/>
<path d="M609.71 407.4C612.295 407.4 614.39 403.474 614.39 398.63C614.39 393.786 612.295 389.86 609.71 389.86C607.125 389.86 605.03 393.786 605.03 398.63C605.03 403.474 607.125 407.4 609.71 407.4Z" fill="#FDA57D"/>
<path d="M714.3 392.4C716.885 392.4 718.98 388.474 718.98 383.63C718.98 378.786 716.885 374.86 714.3 374.86C711.715 374.86 709.62 378.786 709.62 383.63C709.62 388.474 711.715 392.4 714.3 392.4Z" fill="#FDA57D"/>
<defs>
<linearGradient id="paint0_linear" x1="116.72" y1="237.98" x2="116.72" y2="6.21001" gradientUnits="userSpaceOnUse">
<stop stop-color="#808080" stop-opacity="0.25"/>
<stop offset="0.54" stop-color="#808080" stop-opacity="0.12"/>
<stop offset="1" stop-color="#808080" stop-opacity="0.1"/>
</linearGradient>
<linearGradient id="paint1_linear" x1="89523" y1="113879" x2="89523" y2="60159.7" gradientUnits="userSpaceOnUse">
<stop stop-color="#808080" stop-opacity="0.25"/>
<stop offset="0.54" stop-color="#808080" stop-opacity="0.12"/>
<stop offset="1" stop-color="#808080" stop-opacity="0.1"/>
</linearGradient>
<linearGradient id="paint2_linear" x1="89497.4" y1="53840.7" x2="89497.4" y2="118.718" gradientUnits="userSpaceOnUse">
<stop stop-color="#808080" stop-opacity="0.25"/>
<stop offset="0.54" stop-color="#808080" stop-opacity="0.12"/>
<stop offset="1" stop-color="#808080" stop-opacity="0.1"/>
</linearGradient>
<linearGradient id="paint3_linear" x1="153805" y1="53719.6" x2="153805" y2="0" gradientUnits="userSpaceOnUse">
<stop stop-color="#808080" stop-opacity="0.25"/>
<stop offset="0.54" stop-color="#808080" stop-opacity="0.12"/>
<stop offset="1" stop-color="#808080" stop-opacity="0.1"/>
</linearGradient>
<linearGradient id="paint4_linear" x1="26861" y1="112113" x2="26861" y2="58392.9" gradientUnits="userSpaceOnUse">
<stop stop-color="#808080" stop-opacity="0.25"/>
<stop offset="0.54" stop-color="#808080" stop-opacity="0.12"/>
<stop offset="1" stop-color="#808080" stop-opacity="0.1"/>
</linearGradient>
<linearGradient id="paint5_linear" x1="91413.7" y1="175588" x2="91413.7" y2="121868" gradientUnits="userSpaceOnUse">
<stop stop-color="#808080" stop-opacity="0.25"/>
<stop offset="0.54" stop-color="#808080" stop-opacity="0.12"/>
<stop offset="1" stop-color="#808080" stop-opacity="0.1"/>
</linearGradient>
</defs>
</svg>
